<?xml version="1.0" encoding="utf-8"?>
<!-- Generator: Adobe Illustrator 14.0.0, SVG Export Plug-In . SVG Version: 6.00 Build 43363)  -->
<!DOCTYPE svg PUBLIC "-//W3C//DTD SVG 1.1//EN" "http://www.w3.org/Graphics/SVG/1.1/DTD/svg11.dtd">
<svg version="1.1" id="Layer_1" xmlns="http://www.w3.org/2000/svg" xmlns:xlink="http://www.w3.org/1999/xlink" x="0px" y="0px"
	 width="128px" height="128px" viewBox="0 0 128 128" enable-background="new 0 0 128 128" xml:space="preserve">
<title>OpenTelemetry</title>
<path fill="#0E3A5A" d="M67.719,69.959c-5.452,5.453-5.452,14.293,0,19.746c5.453,5.453,14.294,5.453,19.747,0
	c5.452-5.452,5.452-14.293,0-19.746C82.014,64.507,73.172,64.507,67.719,69.959z M82.48,84.732c-2.7,2.701-7.076,2.701-9.775,0
	c-2.701-2.699-2.701-7.074,0-9.775c2.699-2.7,7.075-2.7,9.775,0C85.181,77.645,85.181,82.033,82.48,84.732z M87.232,1.256
	l-8.556,8.556c-1.675,1.675-1.675,4.427,0,6.102l33.403,33.404c1.675,1.675,4.427,1.675,6.102,0l8.556-8.555
	c1.675-1.675,1.675-4.427,0-6.102L93.32,1.255C91.646-0.419,88.906-0.419,87.232,1.256L87.232,1.256z M27.292,110.582
	c1.519-1.52,1.519-3.999,0-5.518l-4.35-4.35c-1.519-1.52-3.999-1.52-5.517,0l-8.984,8.984l-0.013,0.012l-2.467-2.467
	c-1.363-1.362-3.583-1.362-4.933,0c-1.363,1.363-1.363,3.584,0,4.934l14.8,14.801c1.363,1.363,3.583,1.363,4.934,0
	c1.35-1.363,1.363-3.584,0-4.934l-2.467-2.467l0.013-0.013L27.292,110.582z M72.549,25.819L53.542,44.825
	c-1.688,1.688-1.688,4.466,0,6.153l11.737,11.736c8.295-5.972,19.928-5.232,27.393,2.232l9.503-9.502
	c1.688-1.688,1.688-4.466,0-6.154L78.703,25.819C77.016,24.118,74.236,24.118,72.549,25.819L72.549,25.819z M60.346,67.661
	l-6.933-6.933c-1.623-1.623-4.284-1.623-5.907,0L23.06,85.188c-1.622,1.623-1.622,4.284,0,5.906l13.853,13.854
	c1.623,1.622,4.284,1.622,5.907,0l15.722-15.748C55.218,82.331,55.814,74.035,60.346,67.661L60.346,67.661z"/>
</svg>
